PathFileType	3	(X/Y/Z)	C:\Users\koon_\Desktop\
DataRate	CameraRate	NumFrames	NumMarkers	Units	OrigDataRate	OrigDataStartFrame	OrigNumFrames
100.0	100.0	7	27	mm	100.0	952	3804	
Frame#	Time	get:LFHD			get:RFHD			get:LBHD			get:RBHD			get:C7			get:T10			get:CLAV			get:STRN			get:RBAK			get:LSHO			get:LUPA			get:LELB			get:LFRA			get:LWRA			get:LWRB			get:LFIN			get:RSHO			get:RUPA			get:RELB			get:RFRA			get:RWRA			get:RWRB			get:RFIN			get:LASI			get:RASI			get:LPSI			get:RPSI			
		X1	Y1	Z1	X2	Y2	Z2	X3	Y3	Z3	X4	Y4	Z4	X5	Y5	Z5	X6	Y6	Z6	X7	Y7	Z7	X8	Y8	Z8	X9	Y9	Z9	X10	Y10	Z10	X11	Y11	Z11	X12	Y12	Z12	X13	Y13	Z13	X14	Y14	Z14	X15	Y15	Z15	X16	Y16	Z16	X17	Y17	Z17	X18	Y18	Z18	X19	Y19	Z19	X20	Y20	Z20	X21	Y21	Z21	X22	Y22	Z22	X23	Y23	Z23	X24	Y24	Z24	X25	Y25	Z25	X26	Y26	Z26	X27	Y27	Z27	
952	9.51	115.54495	1574.8114	-141.54222	12.282539	1566.0752	-45.257805	-3.2381313	1521.7452	-239.10191	-93.744484	1489.5703	-146.58847	-15.132723	1329.5953	-176.68073	-50.513714	1142.9519	-183.41159	132.05452	1278.12	-36.370186	153.06595	1080.3247	4.3332868	-88.467773	1269.7749	-105.59032	117.34269	1352.0846	-191.17892	219.65652	1361.2595	-211.7379	396.02621	1396.7036	-173.47086	471.88632	1501.2308	-93.221664	518.01978	1546.0055	-35.391296	574.06067	1491.5669	-68.558632	602.14606	1584.5704	-64.077744	-11.310406	1366.8934	-39.456669	32.514	1411.0861	90.443451	76.495117	1414.4521	216.3945	119.84019	1502.924	201.47934	233.57014	1578.2811	295.79449	212.17928	1529.0448	355.34616	224.00212	1622.2808	381.71518	202.16203	891.92969	-102.47414	-16.689255	868.44659	48.899628	2.809762	944.68066	-229.27808	-69.388634	941.73187	-176.40578
953	9.52	115.89661	1574.8052	-141.31892	12.476669	1566.0627	-45.169514	-2.7570472	1521.8154	-239.00661	-93.426079	1489.6768	-146.62305	-14.915365	1329.6248	-176.73514	-50.200386	1142.8848	-183.61966	132.1804	1278.1091	-36.384514	153.12529	1080.2915	4.2406578	-88.340591	1269.7026	-105.88899	117.72412	1352.1119	-191.14894	219.88654	1361.3369	-211.55875	396.43295	1396.5096	-173.4689	472.21121	1500.9247	-92.961494	518.25842	1545.6398	-35.057346	574.36969	1491.356	-68.25415	602.63428	1584.6353	-63.984314	-11.229533	1366.7301	-39.494678	32.573284	1410.7354	90.467178	76.475639	1413.7689	216.48372	119.76725	1502.2664	201.74362	233.81613	1577.6249	295.76294	212.4362	1528.3616	355.40836	224.24403	1621.6042	381.7323	202.46916	891.92328	-102.3745	-16.610132	868.44086	48.731251	3.3132336	944.62128	-229.47986	-68.93882	941.70691	-176.69771
954	9.53	116.20844	1574.8097	-141.10837	12.688246	1566.0284	-45.033226	-2.319313	1521.9553	-239.01013	-93.08152	1489.7294	-146.80939	-14.621562	1329.6687	-176.80463	-49.907719	1142.7841	-183.84225	132.30554	1278.035	-36.39542	153.18365	1080.224	4.1940465	-88.155907	1269.6174	-106.20248	118.1137	1352.0956	-191.11755	220.29201	1361.2467	-211.38095	396.79428	1396.4133	-173.43713	472.41483	1500.641	-92.603157	518.5246	1545.2012	-34.448078	574.65759	1491.229	-68.093773	602.7193	1584.6757	-63.487946	-11.116569	1366.6005	-39.509426	32.583576	1410.2772	90.751671	76.391762	1413.1226	216.68213	119.97218	1501.6755	201.8597	234.0011	1576.8879	295.94812	212.54951	1527.7548	355.65744	224.51685	1621.0416	381.7309	202.8028	891.90692	-102.27354	-16.534958	868.41461	48.509991	3.8244169	944.55322	-229.63185	-68.540993	941.66553	-176.95657
955	9.54	116.50788	1574.8625	-140.80444	12.829745	1565.9491	-44.907547	-1.8773	1522.0996	-238.93069	-92.769562	1489.7617	-146.85526	-14.300469	1329.7161	-176.9631	-49.613029	1142.73	-184.11996	132.37024	1277.8988	-36.399025	153.29993	1080.1622	4.1576886	-87.879074	1269.6208	-106.57159	118.46709	1352.0629	-191.13391	220.68132	1361.1007	-211.34267	397.08276	1396.4214	-173.35529	472.65735	1500.3331	-90.978653	518.81793	1544.7721	-34.006199	575.01855	1491.0879	-67.965248	602.86658	1584.4825	-62.853821	-11.004237	1366.5264	-39.498669	32.606682	1409.8945	90.851387	76.22718	1412.6602	216.93958	119.69135	1501.0142	202.22293	234.22723	1576.1322	296.05002	212.52831	1527.2291	355.78229	224.81685	1620.2877	381.5881	203.10905	891.88947	-102.1327	-16.474653	868.40399	48.329964	4.3366456	944.51721	-229.81761	-68.10836	941.65955	-177.22676
956	9.55	116.78487	1574.8739	-140.50629	12.991378	1565.8434	-44.835373	-1.4255955	1522.2571	-238.94476	-92.481735	1489.7859	-147.01321	-13.983627	1329.7115	-177.06001	-49.272442	1142.7028	-184.45291	132.42848	1277.8649	-36.402107	153.35393	1080.0975	4.1453562	-87.679077	1269.5754	-106.80498	118.78496	1352.0256	-191.21184	221.02647	1360.9844	-211.3512	397.38315	1396.3947	-173.2314	472.95038	1500.1665	-91.771286	519.18164	1544.312	-33.46484	575.33685	1490.8683	-67.882858	603.11078	1584.3405	-62.528969	-10.910965	1366.4382	-39.588058	32.585167	1409.5593	91.060089	76.032631	1412.2739	217.1151	119.79533	1500.5052	202.39055	234.42326	1575.4381	296.2421	212.41754	1526.6925	356.00873	224.87341	1619.9722	381.85117	203.42357	891.83893	-102.04974	-16.39113	868.41138	48.034092	4.8545871	944.45306	-229.97835	-67.68219	941.65814	-177.61555
957	9.56	117.0641	1574.8707	-140.2056	13.098065	1565.7488	-44.689941	-1.0542531	1522.3958	-238.85495	-92.195419	1489.875	-147.16475	-13.676605	1329.7043	-177.27745	-48.940819	1142.6611	-184.66481	132.5345	1277.8285	-36.397182	153.36217	1080.0743	4.1643386	-87.511963	1269.5287	-107.0855	119.07107	1352.0161	-191.24818	221.34727	1360.9568	-211.40051	397.67224	1396.2549	-173.05641	473.28592	1499.8341	-90.270409	519.58459	1543.9407	-33.12709	575.72247	1490.5383	-67.696411	603.42749	1583.8929	-62.076	-10.815358	1366.3354	-39.54192	32.573765	1409.2712	91.165283	75.870659	1411.8876	217.2534	119.91766	1500.0315	202.50989	234.49704	1574.6964	296.61484	212.21573	1526.0627	356.39685	224.86658	1619.2749	382.14288	203.72849	891.76581	-101.94642	-16.351643	868.38373	47.863731	5.4054184	944.41748	-230.174	-67.227257	941.6687	-177.97691
958	9.57	117.3163	1574.8644	-139.8766	13.199024	1565.6993	-44.639618	-0.64776385	1522.5951	-238.83565	-91.953491	1489.9763	-147.28139	-13.419949	1329.6687	-177.34135	-48.611008	1142.6412	-184.94908	132.59793	1277.823	-36.320824	153.37746	1079.9884	4.1094041	-87.383034	1269.4943	-107.29715	119.33414	1352.0183	-191.26642	221.65862	1360.9299	-211.3828	398.08527	1395.9917	-172.9236	473.71307	1499.6095	-91.223068	520.00745	1543.6262	-32.892132	576.10413	1490.1489	-67.427544	603.77069	1583.6285	-61.811634	-10.717068	1366.2609	-39.643158	32.577137	1409.0319	91.257248	75.771866	1411.4663	217.28128	119.89471	1499.5475	202.72786	234.35048	1573.9796	297.20023	212.05231	1525.3182	356.90564	224.76262	1618.4833	382.698	204.00842	891.69373	-101.80231	-16.348776	868.39362	47.613205	5.9417171	944.3728	-230.42012	-66.807487	941.6601	-178.33391
